HIERARCHY
ROOT Hips
{
  OFFSET -15.076 93.0821 45.3178
  CHANNELS 6 Xposition Yposition Zposition Zrotation Xrotation Yrotation
  JOINT ToSpine
  {
    OFFSET -2.69724 7.43032 -0.144315
    CHANNELS 3 Zrotation Xrotation Yrotation
    JOINT Spine
    {
      OFFSET -0.0310711 10.7595 1.96963
      CHANNELS 3 Zrotation Xrotation Yrotation
      JOINT Spine1
      {
        OFFSET 13.1342 3.43533 0.764692
        CHANNELS 3 Zrotation Xrotation Yrotation
        JOINT Neck
        {
          OFFSET 29.8703 7.82586 -0.130764
          CHANNELS 3 Zrotation Xrotation Yrotation
          JOINT Head
          {
            OFFSET 9.52751 0.295786 -0.907742
            CHANNELS 3 Zrotation Xrotation Yrotation
            End Site
            {
              OFFSET 16.4037 0.713936 2.7358
            }
          }
        }
        JOINT LeftShoulder
        {
          OFFSET 27.5574 4.95586 2.47156
          CHANNELS 3 Zrotation Xrotation Yrotation
          JOINT LeftArm
          {
            OFFSET 1.20734 -0.998971 20.1238
            CHANNELS 3 Zrotation Xrotation Yrotation
            JOINT LeftForeArm
            {
              OFFSET 26.8049 -0.0536703 -0.155908
              CHANNELS 3 Zrotation Xrotation Yrotation
              JOINT LeftHand
              {
                OFFSET 26.6817 0 0.320147
                CHANNELS 3 Zrotation Xrotation Yrotation
                End Site
                {
                  OFFSET 18.6119 0 0.382219
                }
              }
            }
          }
        }
        JOINT RightShoulder
        {
          OFFSET 27.5927 4.71444 -2.65209
          CHANNELS 3 Zrotation Xrotation Yrotation
          JOINT RightArm
          {
            OFFSET 2.83739 -1.17114 -18.7564
            CHANNELS 3 Zrotation Xrotation Yrotation
            JOINT RightForeArm
            {
              OFFSET 28.839 -0.0548439 1.22491
              CHANNELS 3 Zrotation Xrotation Yrotation
              JOINT RightHand
              {
                OFFSET 26.5114 0 -0.101894
                CHANNELS 3 Zrotation Xrotation Yrotation
                End Site
                {
                  OFFSET 18.2168 0 0
                }
              }
            }
          }
        }
      }
    }
  }
  JOINT LeftUpLeg
  {
    OFFSET -4.76168 -1.9167 -10.2353
    CHANNELS 3 Zrotation Xrotation Yrotation
    JOINT LeftLeg
    {
      OFFSET 2.55951 -42.0585 -8.02213
      CHANNELS 3 Zrotation Xrotation Yrotation
      JOINT LeftFoot
      {
        OFFSET 3.16357 -42.5282 -3.95426
        CHANNELS 3 Zrotation Xrotation Yrotation
        JOINT LeftToeBase
        {
          OFFSET 0.346054 -6.02161 12.8035
          CHANNELS 3 Zrotation Xrotation Yrotation
          End Site
          {
            OFFSET 0.134235 -1.35082 5.13018
          }
        }
      }
    }
  }
  JOINT RightUpLeg
  {
    OFFSET -4.94151 -1.41743 10.6446
    CHANNELS 3 Zrotation Xrotation Yrotation
    JOINT RightLeg
    {
      OFFSET -2.56294 -42.0364 -7.94377
      CHANNELS 3 Zrotation Xrotation Yrotation
      JOINT RightFoot
      {
        OFFSET -3.0952 -42.555 -4.02241
        CHANNELS 3 Zrotation Xrotation Yrotation
        JOINT RightToeBase
        {
          OFFSET -0.0828122 -6.13587 12.8035
          CHANNELS 3 Zrotation Xrotation Yrotation
          End Site
          {
            OFFSET -0.131328 -1.35082 5.13018
          }
        }
      }
    }
  }
}
MOTION
Frames:	11
Frame Time:	0.0333333
-10.3424 94.5779 42.3963 71.4596 -6.31265 -3.56892 -70.1915 0 88.8779 100.589 73.9835 -12.3917 1.24621 21.3817 7.35433 -112.002 23.4673 156.468 -164.043 69.9709 -161.132 0.742299 -15.6155 -14.677 -73.355 47.652 -139.106 12.5382 -3.47734 -104.452 0.544062 -0.00167506 0.894934 -1.23996 9.3613 27.2092 -134.537 -19.3277 85.5885 18.7413 5.4047 105.131 0.58676 0.00033108 0.0646653 -50.1737 7.59687 93.2458 -2.76107 35.7044 -11.8076 -3.09607 -10.877 -0.846844 5.08771 -12.0865 8.05415 -45.7261 -21.397 73.8023 4.20868 27.64 -4.19792 -3.41777 1.34972 0.533604 1.10014 -10.3952 2.18414 
-10.6685 94.2646 41.9624 71.9313 -6.29237 -2.97641 -70.1915 0 88.8779 99.8867 74.2512 -12.0677 1.61417 21.8149 6.95814 -112.411 23.5461 157.034 -164.615 69.7855 -160.093 0.760705 -15.3481 -14.6067 -73.3532 47.3228 -139.056 12.1251 -3.36888 -104.49 0.502517 -0.00193511 0.923854 -1.2962 9.34394 27.8587 -135.385 -18.9891 84.4092 18.8103 5.61721 105.649 0.58676 0.00033108 0.0646653 -49.284 7.48813 92.0406 -2.90082 37.8894 -11.4362 -3.13906 -12.357 -1.00923 4.63069 -11.362 8.61229 -46.3271 -20.4414 74.8026 3.59498 27.103 -6.00647 -2.02574 1.46403 0.317571 0.576997 -8.4928 4.9149 
-10.9164 94.0205 41.7521 72.4669 -5.9888 -2.13313 -70.1915 0 88.8779 99.4427 74.4546 -12.1608 1.65843 22.0312 7.15297 -112.153 23.5648 156.959 -165.439 69.8675 -159.509 0.737805 -15.6122 -14.7745 -73.2395 47.4077 -138.905 12.0156 -3.33258 -104.468 0.486165 -0.0020375 0.867254 -1.33646 9.23548 28.5037 -135.765 -18.3806 83.0738 18.0932 5.57056 106.159 0.58676 0.00033108 0.0646653 -48.8427 7.54697 90.7037 -3.03081 39.3051 -11.5344 -2.47054 -12.7369 -1.0616 4.83021 -11.9584 10.4514 -47.2843 -19.6125 75.3938 3.52287 26.0863 -9.01014 -2.77288 2.92116 0.353216 -0.0417031 -7.36479 9.22856 
-11.1095 93.8006 41.5941 72.6832 -5.44124 -1.25344 -70.1915 0 88.8779 97.7217 74.4263 -10.7881 1.94259 21.957 7.25551 -112.021 23.5194 156.871 -166.494 69.8728 -158.943 0.73458 -15.5636 -14.8962 -72.6804 47.7806 -139.175 12.7395 -3.54505 -104.493 0.487926 -0.00202651 0.809656 -1.33814 8.91703 29.1267 -135.73 -18.0013 82.43 18.0238 5.69113 106.563 0.58676 0.00033108 0.0646653 -48.0256 7.48471 89.1339 -3.16636 40.8162 -11.5143 -1.93839 -13.9292 -1.18759 4.27686 -11.3576 12.8148 -47.7564 -19.0919 75.5727 3.68644 25.8986 -10.7338 -4.52326 3.60281 0.596786 0.0526626 -8.8627 11.5072 
-11.307 93.5674 41.5405 72.9012 -4.96036 -0.458221 -70.1915 0 88.8779 95.8927 74.2933 -9.11507 2.44981 21.8208 7.10529 -111.765 23.5036 156.949 -167.435 69.8611 -158.125 0.733702 -15.6103 -14.8571 -72.456 48.1496 -139.228 12.9084 -3.59454 -104.498 0.473258 -0.00211834 0.766993 -1.37517 8.77271 29.8604 -135.605 -17.5895 82.0908 18.2541 5.90566 106.942 0.58676 0.00033108 0.0646653 -47.0927 7.61234 88.0022 -3.32772 42.4235 -11.4512 -1.21463 -14.2865 -1.2258 4.11196 -11.1192 12.9802 -47.9886 -18.8371 75.2685 3.68647 26.3186 -11.9347 -3.96194 3.31341 0.519492 -0.285287 -8.16267 13.4779 
-11.4734 93.3321 41.4421 73.2329 -5.1132 -0.158582 -70.1915 0 88.8779 95.8548 74.2976 -9.39244 2.53395 21.8332 7.15372 -111.744 23.629 157.108 -167.67 69.9145 -158.252 0.747764 -15.4508 -14.7582 -71.8221 48.6844 -139.596 13.0434 -3.65966 -104.602 0.506711 -0.00190892 0.780018 -1.38819 8.66927 30.2355 -135.257 -17.4432 82.0572 18.4345 6.1203 107.355 0.58676 0.00033108 0.0646653 -46.6133 7.67594 87.5589 -3.36528 43.7725 -10.443 -1.24445 -15.1255 -1.30418 3.58126 -10.0313 11.4494 -47.5908 -18.9495 74.6632 3.51981 27.5486 -11.125 -3.29932 3.0866 0.424935 -0.443559 -7.40864 13.1632 
-11.6552 93.1733 41.3766 73.344 -5.49115 -0.157352 -70.1915 0 88.8779 95.6485 74.3044 -9.46481 2.3549 21.8489 7.15417 -111.58 23.7655 157.395 -168.121 69.9498 -157.926 0.747423 -15.3981 -14.83 -71.7127 48.8817 -139.258 13.6696 -3.88549 -104.768 0.513172 -0.00186849 0.753121 -1.39885 8.69859 30.2946 -135.079 -17.8433 81.603 18.0442 6.23304 108.045 0.58676 0.00033108 0.0646653 -46.1802 7.75119 87.5837 -3.40177 44.704 -9.71351 -0.738589 -15.3098 -1.31774 3.49688 -9.75647 10.6925 -46.9038 -18.9797 74.2422 3.2221 28.5306 -9.92649 -3.6829 3.00607 0.488383 -0.0421808 -8.97293 12.9386 
-11.7585 93.0758 41.4361 73.6541 -5.57517 -0.102205 -70.1915 0 88.8779 94.5134 74.1776 -9.03824 2.53585 21.5508 7.56492 -111.308 24.0983 158.101 -170.481 69.9834 -155.512 0.743247 -15.3611 -14.966 -72.0111 49.0711 -138.716 13.7662 -4.02821 -105.191 0.526508 -0.00178502 0.715156 -1.41109 8.63516 30.5834 -134.515 -18.3996 82.0749 17.9626 6.28915 108.283 0.58676 0.00033108 0.0646653 -46.1973 7.90741 87.654 -3.50636 45.1663 -10.128 -0.279766 -14.8062 -1.2722 4.06033 -10.8183 11.4512 -46.7264 -18.835 74.0674 2.75356 29.2584 -9.58122 -3.45038 2.673 0.468106 -0.219192 -7.9235 12.1354 
-11.8419 92.9933 41.494 73.8904 -5.43858 -0.0335084 -70.1915 0 88.8779 93.7646 73.9086 -8.74508 2.56661 21.2702 7.55342 -110.943 24.0183 157.997 -170.865 69.9903 -155.02 0.735346 -15.5145 -14.9382 -72.1623 49.316 -138.387 13.743 -4.12798 -105.586 0.49173 -0.00200275 0.638921 -1.44757 8.6502 30.9839 -134.225 -18.7186 82.0921 17.5082 6.26914 108.704 0.58676 0.00033108 0.0646653 -46.1486 8.01144 87.6564 -3.61282 45.5742 -10.5782 -0.526544 -14.8617 -1.2775 4.07581 -10.9204 11.9919 -46.6874 -18.78 74.0489 2.40032 29.7374 -9.59267 -2.77091 2.26879 0.385428 -0.33081 -7.50075 12.3068 
-11.8402 92.9616 41.533 74.0095 -5.26639 0.029812 -70.1915 0 88.8779 91.8196 73.6572 -6.99446 3.05046 21.0631 7.25711 -110.959 24.2551 156.766 -168.357 70.7144 -158.329 0.722743 -15.5851 -15.1134 -72.0556 49.3153 -138.413 13.5826 -4.1016 -105.674 0.457432 -0.00221746 0.593689 -1.46516 8.68044 31.1147 -133.993 -18.9905 81.7318 17.0145 6.20904 109.07 0.58676 0.00033108 0.0646653 -46.1634 8.08676 87.6773 -3.62703 45.6645 -10.6064 -0.419432 -14.9688 -1.28625 3.96939 -10.705 11.7049 -46.7464 -19.1106 73.3904 2.45535 30.11 -10.0899 -4.49671 2.37733 0.639698 -0.300176 -8.32397 13.9718 
-11.8323 92.9356 41.5944 74.0437 -5.17345 0.0900734 -70.1915 0 88.8779 89.7797 73.477 -5.05382 3.50351 20.8466 7.12623 -111.373 24.4888 156.735 -168.058 70.877 -159.209 0.718122 -15.5867 -15.2046 -71.4583 49.3811 -138.93 13.6261 -4.09688 -105.606 0.499816 -0.00195215 0.563258 -1.39511 8.46413 30.7606 -133.663 -19.8827 81.4532 17.0265 6.24227 109.151 0.58676 0.00033108 0.0646653 -46.1087 8.19617 87.7047 -3.6479 45.8017 -10.6154 -0.635965 -15.1585 -1.30378 3.95357 -10.6118 11.266 -46.7969 -19.1927 73.0902 2.44061 30.2332 -10.2794 -4.70741 2.24276 0.675763 -0.279386 -8.65801 14.699 
